<svg width="352" height="213" viewBox="0 0 352 213" fill="none" xmlns="http://www.w3.org/2000/svg">
<path d="M10 0.5H342C347.247 0.5 351.5 4.75329 351.5 10V203C351.5 208.247 347.247 212.5 342 212.5H9.99999C4.75329 212.5 0.5 208.247 0.5 203V10C0.5 4.7533 4.7533 0.5 10 0.5ZM351.5 5.52205C350.855 4.15532 349.923 2.95027 348.783 1.98426C348.8 1.99349 348.817 2.00274 348.835 2.01203C350.579 2.94795 351.5 4.15668 351.5 5.36524V5.52205ZM348.782 211.016C349.923 210.05 350.855 208.845 351.5 207.478V207.635C351.5 208.843 350.579 210.052 348.835 210.988C348.817 210.997 348.8 211.007 348.782 211.016ZM0.5 207.478C1.14536 208.845 2.07699 210.05 3.2175 211.016C3.20004 211.007 3.18264 210.997 3.16532 210.988C1.42091 210.052 0.5 208.843 0.5 207.635V207.478ZM3.21748 1.98427C2.07697 2.95028 1.14536 4.15533 0.5 5.52206V5.36524C0.5 4.15668 1.42091 2.94795 3.16532 2.01203C3.18264 2.00274 3.20002 1.99349 3.21748 1.98427Z" stroke="black"/>
</svg>
