<svg width="352" height="108" viewBox="0 0 352 108" fill="none" xmlns="http://www.w3.org/2000/svg">
<path d="M10 0.5H342C347.247 0.5 351.5 4.75329 351.5 10V98C351.5 103.247 347.247 107.5 342 107.5H9.99999C4.75329 107.5 0.5 103.247 0.5 98V10C0.5 4.7533 4.7533 0.5 10 0.5ZM351.5 5.52205C350.588 3.59065 349.104 1.98212 347.267 0.91478C347.876 1.01983 348.436 1.1423 348.94 1.27925C349.821 1.51906 350.499 1.79574 350.944 2.08203C351.411 2.3829 351.5 2.61019 351.5 2.7204V5.52205ZM347.267 107.085C349.104 106.018 350.588 104.409 351.5 102.478V105.28C351.5 105.39 351.411 105.617 350.944 105.918C350.499 106.204 349.821 106.481 348.94 106.721C348.436 106.858 347.876 106.98 347.267 107.085ZM0.5 102.478C1.41199 104.409 2.89564 106.018 4.73263 107.085C4.1244 106.98 3.5636 106.858 3.06018 106.721C2.17867 106.481 1.50144 106.204 1.05632 105.918C0.588536 105.617 0.5 105.39 0.5 105.28V102.478ZM4.73264 0.914779C2.89563 1.98212 1.41199 3.59065 0.5 5.52206V2.7204C0.5 2.61019 0.588536 2.3829 1.05632 2.08203C1.50144 1.79574 2.17867 1.51906 3.06018 1.27925C3.5636 1.1423 4.1244 1.01982 4.73264 0.914779Z" stroke="#ACACAC"/>
</svg>
