<?xml version="1.0" standalone="no"?>
<!DOCTYPE svg PUBLIC "-//W3C//DTD SVG 20010904//EN"
 "http://www.w3.org/TR/2001/REC-SVG-20010904/DTD/svg10.dtd">
<svg version="1.0" xmlns="http://www.w3.org/2000/svg"
 width="1024.000000pt" height="682.000000pt" viewBox="0 0 1024.000000 682.000000"
 preserveAspectRatio="xMidYMid meet">

<g transform="translate(0.000000,682.000000) scale(0.100000,-0.100000)"
fill="#000000" stroke="none">
<path d="M0 3410 l0 -3410 5120 0 5120 0 0 3410 0 3410 -5120 0 -5120 0 0
-3410z m5879 2281 c10 -19 6 -31 -12 -31 -5 0 -7 6 -4 14 3 7 0 19 -6 25 -8 8
-8 11 1 11 6 0 16 -8 21 -19z m66 -81 c-3 -5 -10 -10 -16 -10 -5 0 -9 5 -9 10
0 6 7 10 16 10 8 0 12 -4 9 -10z m-129 -25 c-25 -19 -36 -19 -36 0 0 10 10 15
28 15 26 -1 26 -1 8 -15z m29 -266 c3 -10 15 -21 25 -24 21 -7 67 -64 53 -66
-4 -1 5 -4 21 -8 28 -6 29 -7 12 -23 -15 -16 -15 -18 -2 -18 9 0 16 5 16 10 0
15 36 12 50 -5 14 -17 6 -33 -26 -45 -17 -7 -25 -20 -30 -47 -6 -37 -7 -38
-50 -38 -24 0 -44 3 -44 7 0 5 -16 8 -35 8 -32 0 -52 -19 -22 -21 22 -1 -107
-28 -140 -28 -18 -1 -33 4 -33 9 0 6 5 10 11 10 5 0 8 4 4 10 -3 5 -12 7 -20
3 -8 -3 -15 -1 -15 5 0 5 9 12 19 15 11 3 20 13 20 23 1 43 7 65 21 74 13 9
13 10 -1 10 -9 0 -22 11 -29 25 -12 22 -11 27 5 39 21 15 54 9 73 -13 11 -14
12 -13 7 7 -4 15 -1 24 9 28 9 3 16 16 16 28 0 12 7 31 15 43 13 19 19 21 40
11 14 -6 27 -19 30 -29z m-672 -26 c42 -33 57 -77 33 -101 -12 -12 -20 -13
-38 -5 -58 28 -78 20 -78 -29 0 -15 -5 -28 -11 -28 -8 0 -8 -4 -1 -13 8 -9 7
-21 -3 -41 -8 -16 -15 -38 -16 -50 0 -20 -1 -20 -8 -2 -7 18 -9 17 -23 -12 -9
-18 -12 -34 -7 -38 12 -7 11 -24 -2 -24 -5 0 -8 4 -4 9 8 15 -15 25 -28 12 -6
-6 -7 -11 -1 -11 20 0 9 -39 -12 -44 -14 -4 -21 -12 -20 -23 2 -10 1 -12 -1
-5 -3 7 -12 10 -21 8 -9 -3 -24 -1 -32 4 -12 7 -11 12 5 32 11 13 26 27 33 31
7 5 10 12 7 17 -10 16 56 273 76 299 18 23 50 36 100 40 9 0 32 -11 52 -26z
m787 -53 c0 -5 -2 -10 -4 -10 -3 0 -8 5 -11 10 -3 6 -1 10 4 10 6 0 11 -4 11
-10z m-352 -64 c-7 -8 -15 -12 -17 -11 -5 6 10 25 20 25 5 0 4 -6 -3 -14z
m-80 -118 c-4 -41 -21 -40 -29 2 -5 25 -3 30 13 30 16 0 19 -6 16 -32z m404
-22 c26 -3 34 -16 12 -17 -33 -2 -54 2 -87 17 l-32 14 45 -6 c25 -3 53 -6 62
-8z m206 -5 c3 -8 -1 -12 -9 -9 -7 2 -15 10 -17 17 -3 8 1 12 9 9 7 -2 15 -10
17 -17z m604 7 c0 -7 2 -17 3 -23 2 -5 3 -19 4 -30 1 -18 3 -17 24 7 26 32 78
47 94 26 13 -17 24 -128 12 -128 -5 0 -12 18 -15 41 -4 22 -15 50 -24 62 -15
18 -20 19 -34 8 -9 -7 -16 -24 -16 -36 0 -19 -4 -22 -21 -18 -16 5 -20 1 -19
-13 1 -10 2 -22 1 -26 0 -5 -1 -11 -2 -15 -3 -21 -43 -63 -60 -63 -29 0 -23
16 11 30 27 11 30 16 25 44 -5 36 -9 92 -6 124 1 23 20 31 23 10z m-1267 -38
c3 -5 1 -10 -4 -10 -6 0 -11 5 -11 10 0 6 2 10 4 10 3 0 8 -4 11 -10z m717
-22 c-14 -15 -22 -18 -22 -9 0 15 32 43 39 35 3 -3 -5 -14 -17 -26z m601 -95
c-7 -2 -19 -2 -25 0 -7 3 -2 5 12 5 14 0 19 -2 13 -5z m122 -13 c3 -5 2 -10
-4 -10 -5 0 -13 5 -16 10 -3 6 -2 10 4 10 5 0 13 -4 16 -10z m-135 -30 c0 -5
-2 -10 -4 -10 -3 0 -8 5 -11 10 -3 6 -1 10 4 10 6 0 11 -4 11 -10z m-110 -31
c0 -6 -4 -7 -10 -4 -5 3 -10 11 -10 16 0 6 5 7 10 4 6 -3 10 -11 10 -16z m107
-5 c-3 -3 -12 -4 -19 -1 -8 3 -5 6 6 6 11 1 17 -2 13 -5z m-1107 -25 c0 -6 -4
-7 -10 -4 -5 3 -10 11 -10 16 0 6 5 7 10 4 6 -3 10 -11 10 -16z m300 11 c0 -5
-5 -10 -11 -10 -5 0 -7 5 -4 10 3 6 8 10 11 10 2 0 4 -4 4 -10z m680 -10 c0
-5 -2 -10 -4 -10 -3 0 -8 5 -11 10 -3 6 -1 10 4 10 6 0 11 -4 11 -10z m-755
-38 c-8 -8 -25 10 -19 20 4 6 9 5 15 -3 4 -7 6 -15 4 -17z m765 -2 c-8 -5 -18
-6 -24 -3 -5 4 -1 10 10 13 24 9 34 2 14 -10z m133 13 c-7 -2 -19 -2 -25 0 -7
3 -2 5 12 5 14 0 19 -2 13 -5z m-80 -56 c4 3 7 1 7 -5 0 -7 -11 -12 -25 -12
-18 0 -23 4 -19 15 5 11 10 13 19 5 6 -5 15 -7 18 -3z m77 -58 c6 -22 9 -46 7
-52 -5 -13 -25 32 -34 77 -9 45 14 23 27 -25z m-143 2 c4 1 11 -15 14 -35 5
-29 3 -36 -8 -32 -10 4 -13 1 -8 -13 6 -21 -10 -38 -20 -21 -3 5 -16 10 -28
11 -20 0 -20 1 -5 12 16 11 15 13 -10 34 -21 18 -23 22 -9 23 9 0 17 7 17 15
0 8 4 15 10 15 5 0 7 8 4 18 -4 13 0 11 15 -6 11 -13 24 -22 28 -21z m-1827 8
c0 -5 -9 -9 -20 -9 -22 0 -27 16 -7 23 15 5 27 -1 27 -14z m173 -10 c-8 -8 -8
-18 -1 -35 6 -13 8 -27 4 -31 -10 -10 -27 19 -21 36 4 9 0 11 -10 7 -24 -9
-17 10 8 22 29 14 33 14 20 1z m660 -89 c3 -11 1 -20 -4 -20 -5 0 -9 2 -9 4 0
2 -3 11 -6 20 -3 9 -2 16 4 16 5 0 12 -9 15 -20z m447 -1 c0 -5 -4 -9 -10 -9
-5 0 -10 7 -10 16 0 8 5 12 10 9 6 -3 10 -10 10 -16z m-508 -11 c-7 -7 -12 -8
-12 -2 0 14 12 26 19 19 2 -3 -1 -11 -7 -17z m978 -7 c13 -25 13 -41 0 -21 -7
11 -10 7 -10 -18 0 -26 -4 -32 -17 -30 -13 2 -21 -8 -31 -39 -8 -24 -18 -43
-22 -43 -8 0 7 60 28 110 6 14 13 33 16 43 7 23 23 22 36 -2z m-1006 -21 c-6
-6 -10 -3 -10 10 0 13 4 16 10 10 7 -7 7 -13 0 -20z m476 -10 c0 -5 -2 -10 -4
-10 -3 0 -8 5 -11 10 -3 6 -1 10 4 10 6 0 11 -4 11 -10z m-390 -10 c0 -5 -2
-10 -4 -10 -3 0 -8 5 -11 10 -3 6 -1 10 4 10 6 0 11 -4 11 -10z m1373 3 c-7
-2 -19 -2 -25 0 -7 3 -2 5 12 5 14 0 19 -2 13 -5z m86 -32 c11 -7 9 -10 -8
-16 -11 -3 -26 -3 -31 0 -12 7 -65 -23 -56 -32 3 -3 12 0 20 6 10 8 16 9 21 1
3 -5 12 -10 18 -10 7 0 6 4 -3 10 -12 8 -10 10 11 10 14 0 34 -7 45 -15 10 -8
28 -15 38 -15 20 0 13 -15 -7 -15 -7 0 -11 -13 -10 -30 1 -25 0 -27 -9 -14 -9
13 -16 14 -40 5 -35 -13 -36 -26 -3 -26 16 0 25 -6 25 -15 0 -8 3 -15 8 -15
14 1 44 51 38 66 -3 7 -1 14 4 14 22 0 5 -54 -28 -93 -14 -16 -16 -16 -29 3
-10 14 -23 18 -49 16 -24 -2 -33 1 -30 10 3 7 -5 12 -20 12 -29 0 -29 -1 -7
-35 14 -21 14 -25 3 -21 -22 7 -57 79 -52 105 2 13 8 20 13 17 5 -3 9 4 9 15
0 22 43 57 80 64 14 2 27 5 30 5 3 1 11 -2 19 -7z m-1529 -25 c0 -8 5 -16 12
-18 9 -3 9 -11 -1 -35 -10 -24 -10 -36 -1 -52 6 -12 7 -21 3 -21 -4 0 -2 -5 5
-12 8 -8 5 -14 -14 -25 -32 -16 -70 -8 -89 20 -19 27 -21 122 -2 110 28 -17
47 -13 47 10 0 13 3 27 7 30 12 12 33 7 33 -7z m1570 0 c0 -8 6 -17 13 -20 6
-3 3 -5 -8 -3 -20 2 -35 37 -16 37 6 0 11 -6 11 -14z m-2506 -28 c-3 -4 -14
-8 -24 -8 -10 0 -21 4 -24 8 -3 5 8 9 24 9 16 0 27 -4 24 -9z m1026 -45 c-12
-66 -50 -114 -50 -64 0 11 -4 23 -10 26 -29 18 10 75 51 75 13 0 15 -7 9 -37z
m497 5 l24 -22 -21 -16 c-13 -10 -30 -47 -46 -100 -13 -47 -35 -105 -48 -130
-13 -25 -27 -56 -31 -70 -26 -91 -105 -237 -160 -295 -15 -17 -51 -62 -80
-100 -55 -74 -109 -130 -137 -146 -16 -8 -17 -4 -13 38 15 154 21 168 111 261
66 66 105 129 118 187 4 17 35 89 70 160 36 72 78 161 95 199 31 67 32 68 63
62 18 -3 43 -16 55 -28z m309 -30 c8 -16 10 -28 5 -28 -12 0 -51 67 -43 74 6
7 14 -3 38 -46z m434 32 c0 -5 -4 -10 -10 -10 -5 0 -10 5 -10 10 0 6 5 10 10
10 6 0 10 -4 10 -10z m-40 -25 c0 -8 3 -14 8 -14 18 3 32 -2 32 -12 0 -6 -6
-9 -13 -6 -8 3 -20 -3 -28 -14 -14 -20 -79 -27 -79 -9 0 6 10 10 23 10 20 1
20 2 4 11 -14 8 -15 13 -4 23 12 12 34 24 50 25 4 1 7 -6 7 -14z m-1720 1 c0
-2 -7 -7 -16 -10 -8 -3 -12 -2 -9 4 6 10 25 14 25 6z m20 -20 c0 -3 -4 -8 -10
-11 -5 -3 -10 -1 -10 4 0 6 5 11 10 11 6 0 10 -2 10 -4z m1278 -21 c-3 -3 -9
2 -12 12 -6 14 -5 15 5 6 7 -7 10 -15 7 -18z m-1634 -20 c11 -17 12 -25 4 -27
-14 -5 -68 20 -68 31 0 26 46 24 64 -4z m1946 -5 c0 -11 5 -20 10 -20 6 0 10
-6 10 -14 0 -14 -32 -30 -82 -42 -16 -3 -28 -10 -28 -15 0 -5 -8 -13 -17 -16
-10 -4 -32 -17 -49 -30 -27 -20 -33 -21 -44 -8 -7 8 -9 23 -5 32 6 17 7 17 21
-1 11 -16 14 -16 14 -4 0 8 11 27 25 42 21 23 30 26 70 22 39 -4 46 -2 41 10
-4 12 -1 14 14 9 20 -6 28 9 10 20 -5 3 -10 13 -10 21 0 8 5 14 10 14 6 0 10
-9 10 -20z m333 -27 c-7 -2 -21 -2 -30 0 -10 3 -4 5 12 5 17 0 24 -2 18 -5z
m187 -85 c0 -42 -81 -117 -113 -105 -7 2 6 12 29 21 49 20 69 53 61 96 -6 28
-5 29 8 16 8 -8 15 -21 15 -28z m-1038 -24 c18 -26 50 -63 71 -83 36 -36 47
-61 26 -61 -6 0 -23 14 -37 31 -15 17 -48 53 -74 80 -27 27 -48 56 -48 64 0
29 30 14 62 -31z m295 19 c-10 -9 -56 -10 -51 -1 3 4 17 8 31 8 15 0 23 -3 20
-7z m-1468 -37 c-13 -28 -43 -35 -52 -11 -8 18 13 32 23 15 6 -9 11 -7 20 10
16 30 24 19 9 -14z m821 25 c0 -6 -4 -12 -8 -15 -5 -3 -9 1 -9 9 0 8 4 15 9
15 4 0 8 -4 8 -9z m-81 -135 c-45 -48 -67 -57 -53 -23 3 9 14 19 25 22 10 4
19 11 19 17 0 6 10 27 22 46 22 36 22 36 28 12 5 -19 -4 -35 -41 -74z m-105
55 c11 -21 12 -31 3 -40 -16 -16 -30 -14 -23 4 3 8 2 15 -3 15 -6 0 -7 31 -2
48 3 8 12 -2 25 -27z m-314 -27 c0 -8 -7 -14 -15 -14 -17 0 -18 2 -9 24 7 18
24 12 24 -10z m-17 -36 c-7 -14 -33 4 -33 23 0 18 1 18 18 2 11 -10 17 -21 15
-25z m1203 -1 c23 -13 16 -42 -15 -60 -35 -21 -45 -10 -36 36 9 41 27 66 34
46 2 -8 10 -18 17 -22z m-850 -12 c17 -16 14 -18 -10 -9 -9 3 -16 10 -16 15 0
13 9 11 26 -6z m1019 5 c3 -6 17 -7 30 -4 29 7 40 -10 19 -30 -16 -17 -46 -21
-58 -9 -8 8 -13 9 -70 11 -50 2 -36 22 18 25 20 1 36 5 36 10 0 10 18 9 25 -3z
m303 -8 c-14 -2 -32 -10 -38 -18 -14 -15 -40 -19 -40 -5 0 22 69 45 95 31 6
-3 -2 -6 -17 -8z m-1448 -7 c0 -6 -9 -11 -20 -12 -11 -1 -20 4 -20 12 0 8 9
13 20 12 11 -1 20 -6 20 -12z m784 -41 c-23 -30 -44 -44 -44 -29 0 11 26 50
40 61 28 23 30 3 4 -32z m541 28 c-3 -7 -5 -20 -5 -27 0 -14 -3 -14 -57 -1
-33 8 -46 26 -18 26 8 0 15 4 15 8 0 4 16 8 35 8 26 0 34 -4 30 -14z m-1317
-53 c2 -27 -1 -38 -14 -43 -22 -8 -34 10 -34 52 0 29 3 33 23 30 17 -2 23 -10
25 -39z m212 1 c0 -5 -4 -10 -10 -10 -5 0 -10 5 -10 10 0 6 5 10 10 10 6 0 10
-4 10 -10z m-1002 -24 c22 -13 12 -26 -21 -26 -25 0 -33 4 -34 19 -1 15 4 19
21 17 12 -1 27 -6 34 -10z m2262 -36 c0 -5 -2 -10 -4 -10 -3 0 -8 5 -11 10 -3
6 -1 10 4 10 6 0 11 -4 11 -10z m-530 -25 c0 -3 -11 -10 -25 -15 -14 -5 -25
-15 -25 -21 0 -7 9 -5 24 5 17 11 32 13 48 7 21 -7 19 -10 -26 -29 -36 -16
-53 -19 -67 -11 -27 14 -24 36 9 53 27 15 62 21 62 11z m-938 -102 c1 -49 1
-97 1 -108 -2 -25 -14 -1556 -14 -1573 1 -6 -2 -11 -6 -10 -9 3 -13 -5 -13
-29 0 -15 1 -15 13 1 11 15 15 16 24 4 14 -16 7 -27 -30 -51 -22 -15 -31 -16
-43 -6 -18 15 -18 58 0 78 11 13 14 139 19 679 4 364 3 662 -2 662 -4 0 -23
-17 -42 -38 -46 -52 -86 -78 -92 -60 -2 7 -3 5 -2 -4 2 -9 -4 -27 -13 -40
l-16 -22 -8 34 c-9 45 17 162 48 217 27 47 101 110 114 97 5 -5 10 -29 13 -54
2 -25 4 35 5 133 2 170 3 177 22 177 18 0 20 -7 22 -87z m1381 57 c8 -32 37
-37 59 -10 10 12 21 21 23 18 7 -7 -34 -48 -49 -48 -17 0 -56 34 -56 49 0 19
17 12 23 -9z m-753 -23 c-18 -4 -35 -5 -38 -2 -3 3 4 8 16 12 12 3 22 10 22
15 0 6 7 4 16 -3 15 -12 13 -14 -16 -22z m1457 1 c-3 -8 -6 -5 -6 6 -1 11 2
17 5 13 3 -3 4 -12 1 -19z m-1043 -20 c-4 -6 -10 -6 -17 1 -6 6 -22 11 -36 11
-19 0 -22 3 -12 9 17 11 73 -7 65 -21z m-35 -7 c9 -6 10 -11 2 -15 -6 -4 -9
-12 -6 -17 4 -5 1 -9 -4 -9 -6 0 -11 7 -11 15 0 8 -5 15 -11 15 -5 0 -7 5 -4
10 8 12 16 12 34 1z m31 -73 c0 -16 -3 -19 -11 -11 -6 6 -8 16 -5 22 11 17 16
13 16 -11z m-90 -8 c0 -5 -4 -10 -10 -10 -5 0 -10 5 -10 10 0 6 5 10 10 10 6
0 10 -4 10 -10z m37 -16 c-3 -3 -12 -4 -19 -1 -8 3 -5 6 6 6 11 1 17 -2 13 -5z
m-1446 -69 c0 -6 -10 -12 -23 -13 -19 -4 -20 -2 -9 12 15 17 33 18 32 1z m626
-41 c-3 -3 -12 -4 -19 -1 -8 3 -5 6 6 6 11 1 17 -2 13 -5z m117 -6 c-4 -6 0
-17 10 -23 14 -11 14 -14 2 -24 -8 -7 -13 -18 -10 -25 6 -15 -15 -26 -58 -31
-33 -5 -36 7 -7 26 24 17 17 46 -15 60 -18 8 -17 9 7 4 19 -4 29 -1 33 10 4 8
15 15 26 15 12 0 17 -4 12 -12z m-894 -19 c0 -5 -4 -9 -10 -9 -5 0 -10 7 -10
16 0 8 5 12 10 9 6 -3 10 -10 10 -16z m820 -19 c12 -8 9 -10 -12 -10 -16 0
-28 5 -28 10 0 13 20 13 40 0z m1008 -9 c10 -6 10 -11 -3 -21 -14 -12 -18 -11
-25 0 -15 24 2 38 28 21z m-308 -11 c0 -5 -7 -10 -16 -10 -8 0 -12 5 -9 10 3
6 10 10 16 10 5 0 9 -4 9 -10z m-742 -20 c12 0 8 -6 -10 -18 -16 -9 -28 -20
-28 -25 0 -4 4 -6 9 -2 6 3 14 -3 20 -12 9 -16 13 -16 31 -5 31 19 33 11 5
-14 l-23 -21 -12 23 c-7 13 -19 20 -26 17 -10 -4 -14 3 -14 22 0 21 4 26 16
21 12 -5 14 -1 10 17 -3 12 -3 16 0 10 3 -7 13 -13 22 -13z m200 -47 c1 -35
-1 -44 -8 -33 -12 18 -13 80 -2 80 5 0 9 -21 10 -47z m669 -48 c-7 -7 -14 -11
-16 -9 -2 2 -10 -1 -18 -7 -16 -14 -17 -5 -1 20 6 11 19 16 29 14 14 -4 15 -8
6 -18z m60 10 c8 -9 13 -19 9 -22 -7 -7 -36 16 -36 28 0 13 10 11 27 -6z
m-140 -17 c-3 -8 -6 -5 -6 6 -1 11 2 17 5 13 3 -3 4 -12 1 -19z m-763 -51 c-3
-9 -10 -17 -15 -17 -14 0 -22 27 -15 47 6 15 8 15 22 2 8 -9 12 -23 8 -32z
m-1094 11 c0 -7 -5 -20 -10 -28 -8 -12 -10 -9 -10 13 0 15 5 27 10 27 6 0 10
-6 10 -12z m1090 -93 c0 -8 -7 -15 -15 -15 -8 0 -15 7 -15 15 0 8 7 15 15 15
8 0 15 -7 15 -15z m-480 -320 c0 -8 -7 -15 -15 -15 -16 0 -20 12 -8 23 11 12
23 8 23 -8z m645 -104 c-7 -32 -25 -43 -25 -15 0 19 20 57 27 51 3 -3 2 -19
-2 -36z m753 -38 c0 -10 2 -31 6 -48 5 -21 4 -25 -2 -15 -16 24 -25 80 -13 80
5 0 9 -8 9 -17z m-292 -288 c10 -26 -1 -35 -13 -10 -6 14 -7 25 -2 25 5 0 12
-7 15 -15z m-1566 -155 c33 -33 22 -105 -12 -83 -7 4 -16 8 -20 8 -5 0 -8 3
-8 8 0 4 0 25 0 47 0 45 10 50 40 20z m780 -15 c0 -8 -4 -17 -10 -20 -6 -4
-10 5 -10 20 0 15 4 24 10 20 6 -3 10 -12 10 -20z m50 14 c0 -6 7 -9 15 -5 9
3 15 0 15 -9 0 -7 8 -16 18 -18 14 -4 14 -6 -5 -12 -13 -4 -23 -11 -23 -16 0
-22 -27 -6 -40 24 -7 17 -15 35 -18 40 -2 4 6 7 17 7 12 0 21 -5 21 -11z m320
-9 c24 -8 24 -8 3 -9 -28 -1 -31 -21 -4 -21 37 0 51 -12 51 -41 0 -16 -4 -29
-10 -29 -5 0 -10 5 -10 11 0 14 -25 39 -39 39 -6 0 -11 -7 -11 -15 0 -8 5 -14
11 -12 6 1 13 -2 15 -8 2 -5 -8 -11 -22 -12 -15 0 -30 -6 -33 -12 -5 -7 -29
-7 -81 2 l-75 13 -3 48 -3 49 70 -5 c38 -3 75 -1 83 3 15 10 24 10 58 -1z
m851 -40 c10 -6 19 -17 19 -25 0 -8 18 -29 40 -46 48 -39 51 -53 10 -47 -16 3
-30 1 -30 -4 0 -4 -5 -8 -11 -8 -6 0 -9 6 -6 14 5 12 1 13 -25 4 -24 -8 -37
-7 -64 5 -32 16 -34 16 -34 -1 0 -10 -3 -13 -8 -6 -4 6 -12 13 -18 15 -7 2 5
26 28 57 40 53 60 62 99 42z m-2056 -58 c-3 -3 -11 0 -18 7 -9 10 -8 11 6 5
10 -3 15 -9 12 -12z m1275 -176 c0 -3 -4 -8 -10 -11 -5 -3 -10 -1 -10 4 0 6 5
11 10 11 6 0 10 -2 10 -4z m700 -7 c0 -5 5 -7 11 -3 7 4 10 1 7 -7 -7 -20 -32
-17 -36 4 -2 9 1 17 7 17 6 0 11 -5 11 -11z m108 2 c18 -11 -10 -34 -32 -25
-19 7 -21 20 -3 27 18 8 21 8 35 -2z m473 -61 c5 0 9 -5 9 -11 0 -15 -43 -7
-48 10 -3 10 0 12 12 8 10 -4 22 -7 27 -7z m89 -5 c10 -13 9 -15 -8 -15 -15 0
-20 5 -16 15 4 8 7 15 9 15 1 0 8 -7 15 -15z m-920 -89 c0 -3 -4 -8 -10 -11
-5 -3 -10 -1 -10 4 0 6 5 11 10 11 6 0 10 -2 10 -4z m-150 -282 c0 -32 -61
-81 -111 -89 -28 -5 -44 -4 -47 3 -2 6 -10 8 -18 5 -8 -3 -14 0 -14 5 0 6 -6
12 -14 14 -12 3 -13 7 -1 28 13 24 14 24 21 5 10 -28 23 -35 65 -35 28 0 40 6
57 30 13 17 29 30 37 30 9 0 12 6 8 16 -3 8 -12 13 -19 10 -14 -5 -19 6 -8 17
12 11 44 -18 44 -39z m-1020 2 c0 -2 -7 -6 -15 -10 -8 -3 -15 -1 -15 4 0 6 7
10 15 10 8 0 15 -2 15 -4z m59 -64 c9 -17 6 -19 -25 -20 l-36 -1 24 19 c28 24
25 24 37 2z m758 -48 c-7 -7 -37 7 -37 17 0 6 9 5 21 -1 11 -7 19 -14 16 -16z
m619 -511 c-10 -10 -19 5 -10 18 6 11 8 11 12 0 2 -7 1 -15 -2 -18z"/>
<path d="M5784 5229 c-3 -6 -1 -16 5 -23 13 -16 10 -58 -4 -68 -20 -15 11 -43
49 -45 32 -2 36 0 36 22 0 20 -5 25 -26 25 -20 0 -25 4 -20 17 4 9 2 20 -5 23
-8 6 -8 13 0 28 9 16 7 21 -9 25 -11 3 -23 1 -26 -4z"/>
<path d="M5755 5060 c-3 -6 1 -7 9 -4 18 7 21 14 7 14 -6 0 -13 -4 -16 -10z"/>
<path d="M5520 4356 c0 -9 -5 -16 -11 -16 -6 0 -3 -8 7 -17 15 -16 17 -16 30
2 17 23 13 39 -9 43 -10 2 -17 -3 -17 -12z"/>
<path d="M6036 4073 c-6 -14 -5 -15 5 -6 7 7 10 15 7 18 -3 3 -9 -2 -12 -12z"/>
<path d="M5970 4016 c0 -2 7 -9 15 -16 9 -7 15 -8 15 -2 0 5 -7 12 -15 16 -8
3 -15 4 -15 2z"/>
<path d="M5939 3973 c-22 -5 -29 -33 -16 -63 9 -23 10 -23 15 -5 2 11 13 28
23 38 32 30 23 42 -22 30z"/>
<path d="M5555 3400 c3 -5 8 -10 11 -10 2 0 4 5 4 10 0 6 -5 10 -11 10 -5 0
-7 -4 -4 -10z"/>
<path d="M5601 2004 c0 -11 3 -14 6 -6 3 7 2 16 -1 19 -3 4 -6 -2 -5 -13z"/>
<path d="M5865 3520 c-3 -5 -1 -10 4 -10 6 0 11 5 11 10 0 6 -2 10 -4 10 -3 0
-8 -4 -11 -10z"/>
</g>
</svg>
