<svg xmlns="http://www.w3.org/2000/svg" version="1.1" xmlns:xlink="http://www.w3.org/1999/xlink" xmlns:svgjs="http://svgjs.dev/svgjs" width="100" height="100" viewBox="0 0 1500 1064"><g transform="matrix(1,0,0,1,-0.9090909090909918,-0.33999866579108584)"><svg viewBox="0 0 396 281" data-background-color="#ffffff" preserveAspectRatio="xMidYMid meet" height="1064" width="1500" xmlns="http://www.w3.org/2000/svg" xmlns:xlink="http://www.w3.org/1999/xlink"><g id="tight-bounds" transform="matrix(1,0,0,1,0.2400000000000091,0.08979288072114855)"><svg viewBox="0 0 395.52 280.82041423855765" height="280.82041423855765" width="395.52"><g><svg viewBox="0 0 395.52 280.82041423855765" height="280.82041423855765" width="395.52"><g transform="matrix(1,0,0,1,0,183.0964361690079)"><svg viewBox="0 0 395.52 97.72397806954979" height="97.72397806954979" width="395.52"><g id="textblocktransform"><svg viewBox="0 0 395.52 97.72397806954979" height="97.72397806954979" width="395.52" id="textblock"><g><svg viewBox="0 0 395.52 71.81722546153458" height="71.81722546153458" width="395.52"><g transform="matrix(1,0,0,1,0,0)"><svg width="395.52" viewBox="2.2570744195498116 -32.10099999999999 287.58416558045025 52.21857999999999" height="71.81722546153458" data-palette-color="#a437db"><path d="M18.313-7.169l-1.216-4.98c-1.39-0.166-2.772-0.117-4.147 0.148v0c-2.782 0.537-4.838 1.864-6.167 3.982-1.331 2.11-1.682 4.796-1.052 8.055v0c1.098 5.688 4.282 8.024 9.551 7.007v0c2.114-0.408 4.22-1.178 6.317-2.309v0c0.426-0.218 0.68-0.365 0.76-0.442v0l1.264 2.434c-0.983 0.889-2.919 1.762-5.809 2.619v0c-0.819 0.226-1.69 0.428-2.612 0.606v0c-2.717 0.524-5.085 0.282-7.107-0.727v0c-2.819-1.377-4.638-4.19-5.458-8.438-0.821-4.255-0.31-7.745 1.533-10.47 1.843-2.725 4.572-4.437 8.185-5.135v0c1.152-0.222 2.405-0.308 3.76-0.257 1.349 0.059 2.439 0.341 3.269 0.846v0l1.211 6.274zM26.503 1.361v0c-0.823-1.449-1.398-3.204-1.724-5.265v0c-0.626-3.957-0.009-7.244 1.852-9.861 1.861-2.616 4.464-4.189 7.809-4.718v0c5.241-0.829 9.018 0.75 11.329 4.738v0c0.856 1.444 1.447 3.193 1.772 5.248v0c0.626 3.957 0.009 7.244-1.852 9.86-1.86 2.623-4.462 4.199-7.807 4.728v0c-5.241 0.829-9.034-0.748-11.379-4.73zM27.867-4.737c0.468 2.957 1.591 5.128 3.369 6.514 1.784 1.378 3.884 1.876 6.301 1.494 2.41-0.381 4.282-1.558 5.617-3.532 1.335-1.973 1.768-4.437 1.301-7.394-0.469-2.963-1.585-5.135-3.35-6.516-1.772-1.387-3.869-1.889-6.292-1.506-2.43 0.384-4.312 1.563-5.647 3.536-1.334 1.979-1.767 4.447-1.299 7.404zM53.147-21.215l0.361 2.908c2.208-2.074 4.388-3.295 6.538-3.663v0c1.972-0.245 3.52-0.192 4.645 0.159 1.125 0.351 2.09 0.93 2.896 1.737 0.805 0.8 1.307 2.008 1.508 3.622v0l2.212 17.833-3.155 0.391-2.111-17.009c-0.149-1.197-0.521-2.085-1.116-2.663v0c-1.181-1.069-2.836-1.472-4.967-1.208v0c-2.025 0.352-4.093 1.28-6.204 2.786v0l2.429 19.579-3.145 0.391-3.006-24.224zM78.164-23.993l0.261 2.918c2.278-1.998 4.498-3.144 6.66-3.437v0c1.979-0.177 3.524-0.071 4.637 0.317 1.112 0.389 2.057 1 2.835 1.835 0.777 0.827 1.238 2.051 1.383 3.671v0l1.602 17.898-3.167 0.284-1.529-17.072c-0.108-1.202-0.449-2.102-1.025-2.699v0c-1.143-1.109-2.784-1.568-4.922-1.376v0c-2.036 0.283-4.135 1.14-6.296 2.571v0l1.76 19.652-3.157 0.283-2.178-24.313zM103.231-13.233l0.043 0.779c0.311 5.718 3.195 8.429 8.653 8.133v0c2.31-0.125 4.407-0.546 6.291-1.263v0c0.477-0.193 0.813-0.345 1.007-0.455v0l0.869 2.546c-1.101 0.747-3.138 1.349-6.111 1.804v0c-0.842 0.112-1.735 0.194-2.681 0.246v0c-2.729 0.148-5.04-0.414-6.931-1.687v0c-2.603-1.715-4.023-4.732-4.257-9.052-0.235-4.327 0.713-7.713 2.843-10.159 2.131-2.446 4.807-3.756 8.029-3.931 3.215-0.175 5.691 0.732 7.428 2.721v0c1.329 1.597 2.067 3.76 2.215 6.489v0c0.035 0.646 0.039 1.33 0.011 2.053v0l-17.404 0.945c-0.019 0.261-0.021 0.539-0.005 0.831zM111.34-23.257v0c-2.017 0.11-3.705 0.812-5.064 2.107-1.365 1.296-2.272 2.917-2.72 4.865v0l14.189-0.77c-0.362-3.599-1.874-5.62-4.535-6.063v0c-0.594-0.128-1.218-0.174-1.87-0.139zM140.701-18.599l-0.361-5.113c-1.342-0.397-2.713-0.581-4.114-0.55v0c-2.833 0.062-5.082 1.025-6.748 2.888-1.666 1.857-2.463 4.445-2.391 7.764v0c0.127 5.792 2.873 8.629 8.239 8.512v0c2.153-0.047 4.358-0.452 6.615-1.215v0c0.457-0.143 0.731-0.246 0.823-0.308v0l0.837 2.612c-1.118 0.711-3.173 1.246-6.166 1.606v0c-0.845 0.085-1.737 0.138-2.677 0.158v0c-2.766 0.061-5.06-0.576-6.884-1.91v0c-2.547-1.831-3.868-4.91-3.963-9.235-0.095-4.332 0.995-7.687 3.271-10.064 2.275-2.377 5.252-3.606 8.932-3.686v0c1.173-0.026 2.423 0.1 3.749 0.378 1.32 0.285 2.347 0.746 3.081 1.383v0l0.139 6.388zM158.552-6.049l0.565 2.643c-0.59 0.583-1.648 0.871-3.175 0.862v0c-2.147-0.012-3.593-0.574-4.341-1.685v0c-1.26-1.214-1.884-2.844-1.872-4.89v0l0.085-15.04-2.74-0.016 0.456-2.827 2.3 0.013 0.027-4.84 3.172-0.272-0.029 5.13 5.67 0.032-0.016 2.83-5.67-0.032-0.09 15.82c-0.011 1.887 0.961 2.835 2.914 2.846v0c0.847 0.005 1.761-0.187 2.744-0.574zM168.461-16.416l14.743 0.44-0.084 2.828-14.744-0.439zM193.395-7.319v0c-0.467-1.6-0.621-3.44-0.462-5.521v0c0.304-3.995 1.663-7.051 4.078-9.166 2.414-2.116 5.31-3.046 8.687-2.789v0c5.291 0.403 8.601 2.811 9.93 7.225v0c0.5 1.603 0.671 3.441 0.512 5.515v0c-0.304 3.995-1.663 7.051-4.077 9.166-2.415 2.123-5.311 3.056-8.688 2.799v0c-5.291-0.403-8.618-2.812-9.98-7.229zM196.13-12.937c-0.227 2.985 0.364 5.356 1.775 7.115 1.418 1.753 3.346 2.722 5.785 2.908 2.433 0.185 4.526-0.528 6.281-2.14 1.754-1.611 2.745-3.91 2.972-6.894 0.228-2.991-0.357-5.363-1.755-7.114-1.404-1.758-3.329-2.731-5.775-2.916-2.453-0.187-4.556 0.526-6.311 2.137-1.755 1.618-2.746 3.92-2.972 6.904zM225.816-12.452l14.663 1.603-0.308 2.813-14.663-1.603zM254.038-19.187l0.852-5.707c0.654-4.378 3.395-6.206 8.221-5.485v0c1.259 0.188 2.351 0.483 3.276 0.884v0l-0.89 2.637c-1.07-0.328-1.981-0.549-2.732-0.661-0.758-0.113-1.463-0.087-2.115 0.078v0c-1.514 0.434-2.445 1.812-2.791 4.133v0l-0.686 4.589 5.993 0.896-0.418 2.799-5.994-0.896-3.189 21.343-3.135-0.469 3.189-21.342-2.71-0.405 0.854-2.734zM270.844 8.317l-4.277-25.555 3.559 0.38 3.236 23.298 13.112-20.134 3.367 0.6-22.378 33.212-2.933-0.523 7.427-11.079z" opacity="1" transform="matrix(1,0,0,1,0,0)" fill="#a437db" class="wordmark-text-0" data-fill-palette-color="primary" id="text-0"></path></svg></g></svg></g><g transform="matrix(1,0,0,1,118.31980799999998,78.72132707913444)"><svg viewBox="0 0 158.88038400000002 19.002650990415336" height="19.002650990415336" width="158.88038400000002"><g transform="matrix(1,0,0,1,0,0)"><svg width="158.88038400000002" viewBox="0.1 -34.55 298 35.65" height="19.002650990415336" data-palette-color="#b19dd0"><path d="M12.55 1.1L0.1-26.07 11.16-26.07 17.41-12.94 24.78-27.2 32.47-12.77 35.96-20.68Q37.23-23.58 37.49-24.72 37.74-25.85 38.09-26.18 38.43-26.51 38.89-26.51 39.36-26.51 39.64-26.17 39.92-25.83 39.92-25.57 39.92-25.32 39.88-25.09 39.84-24.85 39.67-24.35 39.5-23.85 39.11-23L39.11-23 28.59 1.1 20.43-14.5 12.55 1.1ZM66.82-5.93L66.82-5.93Q67.77-5.93 67.77-5.05L67.77-5.05Q67.77-4.39 66.92-3.49L66.92-3.49Q63.06 0.46 56.35 0.46L56.35 0.46Q50.31 0.46 46.19-3.17L46.19-3.17Q41.92-6.96 41.92-12.74L41.92-12.74Q41.92-18.65 45.77-22.46L45.77-22.46Q49.85-26.51 56.61-26.51L56.61-26.51Q62.03-26.51 65.72-23.22L65.72-23.22Q69.7-19.68 69.7-13.92L69.7-13.92Q69.7-13.09 69.65-12.16L69.65-12.16 53.54-12.16 53.54-1.68Q55.2-1.34 57.27-1.34L57.27-1.34Q61.67-1.34 64.77-4.25L64.77-4.25Q65.4-4.88 65.67-5.25L65.67-5.25Q66.23-5.93 66.82-5.93ZM60.3-13.94L60.3-24.27Q58.71-24.73 56.71-24.73 54.71-24.73 53.54-24.46L53.54-24.46 53.54-13.94 60.3-13.94ZM96.79-24.54L96.79-1.56Q97.94-1.34 99.1-1.34 100.26-1.34 101.35-1.53 102.43-1.71 103.41-2.05L103.41-2.05Q105.49-2.78 106.76-3.91L106.76-3.91Q107.66-4.69 108.07-4.69L108.07-4.69Q109-4.69 109-3.86 109-3.03 107.49-1.88L107.49-1.88Q103.97 0.46 99.04 0.46L99.04 0.46Q92.62 0.46 88.66-3.39L88.66-3.39Q84.78-7.2 84.78-13.28L84.78-13.28Q84.78-19.04 88.91-22.8L88.91-22.8Q93.01-26.51 99.21-26.51L99.21-26.51Q102.75-26.51 106.02-25.05L106.02-25.05Q108.51-23.97 108.51-22.83L108.51-22.83Q108.51-22.34 108.23-22.08 107.95-21.83 107.61-21.83L107.61-21.83Q107.1-21.83 106.29-22.39L106.29-22.39Q104.7-23.9 101.58-24.51L101.58-24.51Q100.46-24.73 99.11-24.73 97.77-24.73 96.79-24.54L96.79-24.54ZM112.32-13.18L112.32-13.18Q112.32-16.11 113.38-18.52 114.44-20.92 116.3-22.71L116.3-22.71Q120.3-26.51 126.36-26.51L126.36-26.51Q132.53-26.51 136.42-22.56L136.42-22.56Q140.13-18.82 140.13-13.11L140.13-13.11Q140.13-7.37 136.32-3.52L136.32-3.52Q132.39 0.46 126.26 0.46L126.26 0.46Q120.28 0.46 116.35-3.32L116.35-3.32Q112.32-7.23 112.32-13.18ZM125.58-24.71L125.58-1.37Q125.77-1.34 125.97-1.34L125.97-1.34 126.31-1.34Q131.24-1.34 134.58-4.39L134.58-4.39Q138.15-7.69 138.15-13.04L138.15-13.04Q138.15-18.26 134.8-21.51L134.8-21.51Q131.51-24.73 126.28-24.73L126.28-24.73 125.92-24.73Q125.75-24.73 125.58-24.71L125.58-24.71ZM164.44 0L164.44-23.41Q163.83-23.8 163.12-23.8 162.41-23.8 161.66-23.47 160.9-23.14 160.07-22.56L160.07-22.56Q158.34-21.31 156.87-19.24L156.87-19.24 156.87 0 146.37 0 146.37-26.07 156.87-26.07 156.87-21.9Q161.05-26.51 166.32-26.51L166.32-26.51Q174.94-26.51 174.94-18.16L174.94-18.16 174.94 0 164.44 0ZM200.99 0L200.99-23.41Q200.38-23.8 199.67-23.8 198.96-23.8 198.2-23.47 197.45-23.14 196.62-22.56L196.62-22.56Q194.88-21.31 193.42-19.24L193.42-19.24 193.42 0 182.92 0 182.92-26.07 193.42-26.07 193.42-21.9Q197.59-26.51 202.87-26.51L202.87-26.51Q211.48-26.51 211.48-18.16L211.48-18.16 211.48 0 200.99 0ZM242.12-5.93L242.12-5.93Q243.07-5.93 243.07-5.05L243.07-5.05Q243.07-4.39 242.22-3.49L242.22-3.49Q238.36 0.46 231.65 0.46L231.65 0.46Q225.62 0.46 221.49-3.17L221.49-3.17Q217.22-6.96 217.22-12.74L217.22-12.74Q217.22-18.65 221.08-22.46L221.08-22.46Q225.15-26.51 231.92-26.51L231.92-26.51Q237.34-26.51 241.02-23.22L241.02-23.22Q245-19.68 245-13.92L245-13.92Q245-13.09 244.95-12.16L244.95-12.16 228.84-12.16 228.84-1.68Q230.5-1.34 232.58-1.34L232.58-1.34Q236.97-1.34 240.07-4.25L240.07-4.25Q240.71-4.88 240.97-5.25L240.97-5.25Q241.54-5.93 242.12-5.93ZM235.6-13.94L235.6-24.27Q234.02-24.73 232.01-24.73 230.01-24.73 228.84-24.46L228.84-24.46 228.84-13.94 235.6-13.94ZM260.97-24.54L260.97-1.56Q262.11-1.34 263.27-1.34 264.43-1.34 265.52-1.53 266.61-1.71 267.58-2.05L267.58-2.05Q269.66-2.78 270.93-3.91L270.93-3.91Q271.83-4.69 272.25-4.69L272.25-4.69Q273.17-4.69 273.17-3.86 273.17-3.03 271.66-1.88L271.66-1.88Q268.14 0.46 263.21 0.46L263.21 0.46Q256.79 0.46 252.84-3.39L252.84-3.39Q248.95-7.2 248.95-13.28L248.95-13.28Q248.95-19.04 253.08-22.8L253.08-22.8Q257.18-26.51 263.38-26.51L263.38-26.51Q266.92-26.51 270.19-25.05L270.19-25.05Q272.69-23.97 272.69-22.83L272.69-22.83Q272.69-22.34 272.4-22.08 272.12-21.83 271.78-21.83L271.78-21.83Q271.27-21.83 270.46-22.39L270.46-22.39Q268.88-23.9 265.75-24.51L265.75-24.51Q264.63-24.73 263.29-24.73 261.94-24.73 260.97-24.54L260.97-24.54ZM288.77 0.46L288.77 0.46Q279.2 0.46 279.2-8.28L279.2-8.28 279.18-24.29 276.37-24.17Q275.05-24.17 275.05-25.17 275.05-26.17 276.47-26.17L276.47-26.17 278.81-26.07 279.18-26.07 279.18-29.86 289.65-34.55 289.65-26.07 292.92-26.07 295.24-26.17Q296.68-26.17 296.68-25.15L296.68-25.15Q296.68-24.68 296.28-24.43 295.88-24.17 295.36-24.17L295.36-24.17 292.34-24.29 289.65-24.29 289.65-1.34Q292.51-1.39 294.41-2.98L294.41-2.98Q295.31-3.66 295.69-4.74 296.07-5.81 296.38-6.12 296.68-6.42 297.1-6.42L297.1-6.42Q297.51-6.42 297.8-6.09 298.1-5.76 298.1-5.31 298.1-4.86 297.85-4.31 297.61-3.76 297.12-3.15L297.12-3.15Q296.02-1.78 294.58-0.98L294.58-0.98Q291.97 0.46 288.77 0.46Z" opacity="1" transform="matrix(1,0,0,1,0,0)" fill="#b19dd0" class="slogan-text-1" data-fill-palette-color="secondary" id="text-1"></path></svg></g></svg></g></svg></g></svg></g><g transform="matrix(1,0,0,1,118.63608972777361,0)"><svg viewBox="0 0 158.24782054445276 158.11739651653156" height="158.11739651653156" width="158.24782054445276"><g><svg xmlns="http://www.w3.org/2000/svg" xmlns:xlink="http://www.w3.org/1999/xlink" version="1.1" x="0" y="0" viewBox="4.5000000000000036 4.499999999999999 90.99999999999999 90.92500000000001" enable-background="new 0 0 100 100" xml:space="preserve" height="158.11739651653156" width="158.24782054445276" class="icon-icon-0" data-fill-palette-color="accent" id="icon-0"><path d="M47.9 21.2v-9.4l-2.9 2.9c-0.8 0.8-2.2 0.8-3 0-0.8-0.8-0.8-2.2 0-3l6.6-6.6c0.8-0.8 2.2-0.8 3 0l6.6 6.6c0.8 0.8 0.8 2.2 0 3-0.4 0.4-1 0.6-1.5 0.6s-1.1-0.2-1.5-0.6l-2.9-2.9v9.4c0 1.2-1 2.1-2.1 2.1C48.8 23.3 47.9 22.3 47.9 21.2zM58.7 71c-2.8 1.2-5.7 1.7-8.7 1.7-9.2 0-17.5-5.5-21-14.1-2.3-5.6-2.3-11.8 0-17.4 2.3-5.6 6.7-10 12.3-12.3 2.8-1.2 5.7-1.7 8.7-1.7 9.2 0 17.5 5.5 21 14.1 2.3 5.6 2.3 11.8 0 17.4C68.7 64.3 64.3 68.7 58.7 71zM36.9 55.8c-0.4-2-0.6-4-0.6-5.8 0-1.9 0.2-3.8 0.5-5.7h-4.3c-1.2 3.8-1.2 7.8 0 11.5H36.9zM41.2 55.8h6.7V44.2h-6.8c-0.4 1.8-0.6 3.8-0.6 5.7C40.5 51.8 40.8 53.8 41.2 55.8zM63.5 44.2c0.3 1.9 0.5 3.8 0.5 5.7 0 1.8-0.2 3.8-0.6 5.8h4.2c1.2-3.8 1.2-7.8 0-11.5H63.5zM59.2 44.2h-7v11.5H59c0.4-1.9 0.7-3.9 0.7-5.8C59.7 48 59.5 46.1 59.2 44.2zM52.1 67.7c2.1-1.2 4.1-4.1 5.6-7.7h-5.6V67.7zM58 40c-1.4-3.8-3.5-6.8-5.9-7.9V40H58zM42.2 40h5.6v-7.8C45.6 33.4 43.6 36.3 42.2 40zM42.5 60c0.4 0.9 0.7 1.8 1.2 2.6 1.3 2.4 2.7 4.1 4.2 5.1V60H42.5zM65.6 60h-3.3c-0.7 2.1-1.6 4.1-2.6 5.8C62 64.4 64 62.4 65.6 60zM60.1 34.5c0.9 1.7 1.7 3.5 2.3 5.5h3.1C64.1 37.8 62.3 35.9 60.1 34.5zM34.4 40h3.3c0.6-2.1 1.5-4 2.5-5.7C37.9 35.7 35.9 37.7 34.4 40zM40.8 66c-1.1-1.8-2-3.9-2.8-6h-3.5C36.1 62.5 38.2 64.6 40.8 66zM51.5 94.8l6.6-6.6c0.8-0.8 0.8-2.2 0-3-0.8-0.8-2.2-0.8-3 0l-2.9 2.9v-9.4c0-1.2-1-2.1-2.1-2.1-1.2 0-2.1 1-2.1 2.1v9.4l-2.9-2.9c-0.8-0.8-2.2-0.8-3 0-0.8 0.8-0.8 2.2 0 3l6.6 6.6c0.4 0.4 1 0.6 1.5 0.6C50.5 95.5 51.1 95.3 51.5 94.8zM11.8 52.1h9.4c1.2 0 2.1-1 2.1-2.1s-1-2.1-2.1-2.1h-9.4l2.9-2.9c0.8-0.8 0.8-2.2 0-3-0.8-0.8-2.2-0.8-3 0l-6.6 6.6c-0.8 0.8-0.8 2.2 0 3l6.6 6.6c0.4 0.4 1 0.6 1.5 0.6s1.1-0.2 1.5-0.6c0.8-0.8 0.8-2.2 0-3L11.8 52.1zM85.3 58.1c0.4 0.4 1 0.6 1.5 0.6s1.1-0.2 1.5-0.6l6.6-6.6c0.8-0.8 0.8-2.2 0-3l-6.6-6.6c-0.8-0.8-2.2-0.8-3 0-0.8 0.8-0.8 2.2 0 3l2.9 2.9h-9.4c-1.2 0-2.1 1-2.1 2.1s1 2.1 2.1 2.1h9.4l-2.9 2.9C84.5 55.9 84.5 57.2 85.3 58.1zM19.4 30.8c1.2 0 2.1-1 2.1-2.1v-4.2l6.6 6.6c0.4 0.4 1 0.6 1.5 0.6 0.5 0 1.1-0.2 1.5-0.6 0.8-0.8 0.8-2.2 0-3l-6.6-6.6h4.2c1.2 0 2.1-1 2.1-2.1s-1-2.1-2.1-2.1h-9.3c-1.2 0-2.1 1-2.1 2.1v9.3C17.2 29.8 18.2 30.8 19.4 30.8zM69.2 80.6c0 1.2 1 2.1 2.1 2.1h9.3c1.2 0 2.1-1 2.1-2.1v-9.3c0-1.2-1-2.1-2.1-2.1-1.2 0-2.1 1-2.1 2.1v4.2l-6.6-6.6c-0.8-0.8-2.2-0.8-3 0-0.8 0.8-0.8 2.2 0 3l6.6 6.6h-4.2C70.2 78.5 69.2 79.5 69.2 80.6zM30.8 80.6c0-1.2-1-2.1-2.1-2.1h-4.2l6.6-6.6c0.8-0.8 0.8-2.2 0-3-0.8-0.8-2.2-0.8-3 0l-6.6 6.6v-4.2c0-1.2-1-2.1-2.1-2.1s-2.1 1-2.1 2.1v9.3c0 1.2 1 2.1 2.1 2.1h9.3C29.8 82.8 30.8 81.8 30.8 80.6zM80.6 30.8c1.2 0 2.1-1 2.1-2.1v-9.3c0-1.2-1-2.1-2.1-2.1h-9.3c-1.2 0-2.1 1-2.1 2.1s1 2.1 2.1 2.1h4.2l-6.6 6.6c-0.8 0.8-0.8 2.2 0 3 0.4 0.4 1 0.6 1.5 0.6 0.5 0 1.1-0.2 1.5-0.6l6.6-6.6v4.2C78.5 29.8 79.5 30.8 80.6 30.8z" fill="#8b3c7f" data-fill-palette-color="accent"></path></svg></g></svg></g><g></g></svg></g><defs></defs></svg><rect width="395.52" height="280.82041423855765" fill="none" stroke="none" visibility="hidden"></rect></g></svg></g></svg>