<svg width="31" height="33" viewBox="0 0 31 33" fill="none" xmlns="http://www.w3.org/2000/svg">
<path d="M19.3725 17.5979H7.67692C6.87284 17.5979 6.21497 18.2711 6.21497 19.094V31.0628C6.21497 31.8857 6.87284 32.5589 7.67692 32.5589H19.3725C20.1766 32.5589 20.8345 31.8857 20.8345 31.0628V19.094C20.8345 18.2711 20.1766 17.5979 19.3725 17.5979ZM13.5247 22.0862C15.1329 22.0862 16.4486 23.4327 16.4486 25.0784C16.4486 26.7241 15.1329 28.0706 13.5247 28.0706C11.9166 28.0706 10.6008 26.7241 10.6008 25.0784C10.6008 23.4327 11.9166 22.0862 13.5247 22.0862ZM8.0424 31.0628C7.82311 31.0628 7.67692 30.9132 7.67692 30.6888V24.3304H9.21196C9.13886 24.5548 9.13886 24.854 9.13886 25.0784C9.13886 27.547 11.1125 29.5667 13.5247 29.5667C15.9369 29.5667 17.9106 27.547 17.9106 25.0784C17.9106 24.854 17.9106 24.5548 17.8375 24.3304H19.3725V30.6888C19.3725 30.9132 19.2263 31.0628 19.007 31.0628H8.0424ZM19.3725 20.9641C19.3725 21.1885 19.2263 21.3382 19.007 21.3382H17.5451C17.3258 21.3382 17.1796 21.1885 17.1796 20.9641V19.468C17.1796 19.2436 17.3258 19.094 17.5451 19.094H19.007C19.2263 19.094 19.3725 19.2436 19.3725 19.468V20.9641Z" fill="black"/>
</svg>
