<?xml version="1.0" standalone="no"?>
<!DOCTYPE svg PUBLIC "-//W3C//DTD SVG 20010904//EN"
 "http://www.w3.org/TR/2001/REC-SVG-20010904/DTD/svg10.dtd">
<svg version="1.0" xmlns="http://www.w3.org/2000/svg"
 width="25.000000pt" height="25.000000pt" viewBox="0 0 512.000000 512.000000"
 preserveAspectRatio="xMidYMid meet">

<g transform="translate(0.000000,512.000000) scale(0.100000,-0.100000)"
fill="#000000" stroke="none">
<path d="M2625 4760 c-208 -32 -387 -201 -431 -409 -20 -97 -20 -581 1 -621
34 -66 108 -94 170 -64 69 32 69 35 75 359 l5 290 30 54 c17 30 48 67 69 83
83 60 56 59 1052 56 l909 -3 55 -31 c66 -38 114 -103 129 -177 8 -36 11 -561
9 -1762 l-3 -1710 -27 -51 c-15 -29 -44 -66 -65 -83 -76 -63 -48 -61 -1033
-61 -1021 0 -967 -4 -1050 80 -74 73 -80 103 -80 409 0 236 -2 258 -20 288
-30 50 -62 66 -120 61 -56 -6 -86 -27 -106 -75 -20 -47 -19 -524 0 -608 50
-209 202 -358 409 -401 57 -12 225 -14 1000 -12 l932 3 65 23 c164 58 276 176
336 352 18 53 19 121 19 1815 l0 1760 -22 70 c-60 191 -228 337 -418 365 -82
11 -1813 12 -1890 0z"/>
<path d="M1105 3673 c-11 -3 -30 -13 -42 -22 -11 -9 -220 -245 -462 -524
l-441 -509 0 -51 0 -52 463 -462 462 -463 45 0 c87 0 150 69 135 149 -5 31
-56 86 -333 364 l-327 327 1538 0 c1669 0 1580 -3 1625 55 47 60 33 146 -30
185 -33 20 -46 20 -1596 20 -914 0 -1562 4 -1560 9 2 5 152 180 333 390 182
210 335 394 342 409 18 39 16 73 -7 109 -32 53 -92 80 -145 66z"/>
</g>
</svg>
