<?xml version="1.0" standalone="no"?>
<!DOCTYPE svg PUBLIC "-//W3C//DTD SVG 20010904//EN"
 "http://www.w3.org/TR/2001/REC-SVG-20010904/DTD/svg10.dtd">
<svg version="1.0" xmlns="http://www.w3.org/2000/svg"
 width="25.000000pt" height="25.000000pt" viewBox="0 0 512.000000 512.000000"
 preserveAspectRatio="xMidYMid meet">

<g transform="translate(0.000000,512.000000) scale(0.100000,-0.100000)"
fill="#000000" stroke="none">
<path d="M2331 5099 c-1310 -116 -2330 -1228 -2330 -2539 0 -673 268 -1316
750 -1799 788 -788 1996 -975 2985 -462 850 441 1383 1313 1383 2261 0 673
-268 1316 -750 1799 -535 535 -1285 807 -2038 740z m539 -225 c290 -37 596
-140 850 -286 196 -113 319 -206 483 -367 194 -189 331 -376 453 -616 168
-333 246 -660 246 -1040 0 -195 -8 -283 -43 -463 -77 -400 -289 -812 -578
-1124 l-71 -76 -478 238 -478 238 -22 128 -21 129 23 25 c39 41 115 165 146
238 36 84 66 195 79 283 9 62 12 68 73 130 125 126 169 220 176 375 6 144 -32
273 -118 399 l-28 40 29 130 c25 110 29 143 24 215 -12 163 -58 296 -150 425
-57 81 -193 209 -285 269 -111 74 -288 155 -361 167 -97 17 -388 14 -501 -5
-397 -65 -663 -273 -788 -613 -55 -152 -73 -275 -75 -506 l-2 -207 -30 -43
c-183 -254 -139 -528 112 -708 37 -26 46 -40 56 -83 38 -163 99 -308 170 -403
l39 -52 0 -126 0 -125 -436 -291 c-240 -159 -442 -293 -449 -295 -27 -11 -239
263 -361 466 -165 275 -281 614 -325 950 -19 152 -15 441 10 606 38 254 110
482 225 709 125 245 261 430 463 626 160 156 280 245 473 357 439 252 952 352
1470 286z m11 -775 c201 -82 397 -241 471 -385 76 -146 84 -239 38 -474 l-30
-154 51 -73 c67 -97 100 -180 106 -269 10 -129 -38 -222 -166 -323 l-58 -46
-11 -95 c-40 -341 -193 -566 -437 -643 -62 -19 -90 -22 -245 -21 -146 1 -188
5 -255 22 -226 61 -377 197 -465 416 -25 61 -55 170 -84 299 -5 21 -18 33 -61
52 -68 30 -147 109 -170 169 -37 96 -1 212 98 322 l54 59 -14 40 c-8 23 -17
100 -20 185 -16 418 119 712 393 852 165 85 287 108 539 104 180 -2 180 -2
266 -37z m-770 -2593 c153 -71 333 -101 557 -94 125 4 146 8 242 40 58 20 106
35 108 33 2 -2 9 -40 38 -213 5 -32 13 -37 496 -278 270 -135 487 -249 482
-253 -80 -70 -281 -199 -412 -265 -335 -168 -675 -248 -1061 -247 -384 1 -737
83 -1069 250 -123 62 -379 227 -393 254 -2 4 205 148 461 320 l465 312 3 88
c1 48 4 87 6 87 2 0 37 -15 77 -34z"/>
</g>
</svg>
